<?xml version="1.0" encoding="UTF-8" standalone="no"?>
<!-- Generator: Adobe Illustrator 18.1.1, SVG Export Plug-In . SVG Version: 6.00 Build 0)  -->

<svg
   xmlns:dc="http://purl.org/dc/elements/1.1/"
   xmlns:cc="http://creativecommons.org/ns#"
   xmlns:rdf="http://www.w3.org/1999/02/22-rdf-syntax-ns#"
   xmlns:svg="http://www.w3.org/2000/svg"
   xmlns="http://www.w3.org/2000/svg"
   xmlns:sodipodi="http://sodipodi.sourceforge.net/DTD/sodipodi-0.dtd"
   xmlns:inkscape="http://www.inkscape.org/namespaces/inkscape"
   version="1.1"
   id="Layer_1"
   x="0px"
   y="0px"
   viewBox="0 0 1299.2 1210.4455"
   enable-background="new 0 0 1368 1944"
   xml:space="preserve"
   inkscape:version="0.48.5 r10040"
   width="100%"
   height="100%"
   sodipodi:docname="thinker-on-hill.svg"><metadata
     id="metadata3095"><rdf:RDF><cc:Work
         rdf:about=""><dc:format>image/svg+xml</dc:format><dc:type
           rdf:resource="http://purl.org/dc/dcmitype/StillImage" /></cc:Work></rdf:RDF></metadata><defs
     id="defs3093" /><sodipodi:namedview
     pagecolor="#ffffff"
     bordercolor="#666666"
     borderopacity="1"
     objecttolerance="10"
     gridtolerance="10"
     guidetolerance="10"
     inkscape:pageopacity="0"
     inkscape:pageshadow="2"
     inkscape:window-width="1916"
     inkscape:window-height="1175"
     id="namedview3091"
     showgrid="false"
     fit-margin-top="0"
     fit-margin-left="0"
     fit-margin-right="0"
     fit-margin-bottom="0"
     inkscape:zoom="0.50462963"
     inkscape:cx="295.73853"
     inkscape:cy="390.2"
     inkscape:window-x="0"
     inkscape:window-y="21"
     inkscape:window-maximized="0"
     inkscape:current-layer="Layer_1" /><g
     id="g3097"
     style="stroke:#000000;stroke-opacity:0.04313726"><path
       style="fill:none;stroke:#000000;stroke-width:9;stroke-miterlimit:10;stroke-opacity:0.04313726"
       inkscape:connector-curvature="0"
       id="path3061"
       d="m 628.5,11.645489 c -51.1,15 -99.5,69.7 -108.6,133.400001 -11.7,80.8 -28.9,193.6 -40.2,245.5 -9.9,45.6 -27.2,175.2 -31.2,195.8 -21.5,112 -2.9,224 5.6,262.7 10.5,48.1 28.6,123.3 66.2,139.8 37.6,16.50001 75.2,-3 88.7,-10.5 13.5,-7.5 66.2,-34.6 66.2,-34.6 0,0 16,-10.8 25.6,3 9.8,14.1 46.6,55.60001 57.1,64.70001 10.5,9 27.1,25.6 49.6,24.1 22.6,-1.5 48.1,-15 70.7,-34.6 22.6,-19.50001 47.2,-76.40001 55.6,-96.20001 7.5,-17.5 20.5,-67.7 22.6,-102.2 1.7,-28.9 -6,-127.8 -10.5,-153.4 -4.5,-25.6 -15,-96.2 -16.5,-112.8 -1.5,-16.6 -22.6,-102.2 -25.6,-117.3 -3,-15 -13.5,-61.6 -13.5,-67.7 0,-6.1 4.5,-21.1 4.5,-30.1 0,-9 -8.8,-50.4 -21.6,-52.4 -10.5,-1.6 -7.8,-4.9 -14,-26.6 -8.6,-29.8 -15.4,-73.7 -20.8,-97 -3.7,-15.8 -14.3,-60.100001 -30.8,-79.700001 -16.5,-19.6 -37.7,-41.2 -80.2,-54.6 -47.8,-14.9000003 -98.9,0.7 -98.9,0.7 z"
       stroke-miterlimit="10" /><path
       style="fill:none;stroke:#000000;stroke-width:9;stroke-miterlimit:10;stroke-opacity:0.04313726"
       inkscape:connector-curvature="0"
       id="path3063"
       d="m 780.9,422.84549 c 13,-24.6 55.1,-79 105.2,-74.9 6.8,-13.3 6.9,-27.9 4.6,-45.5 -2.1,-16.6 -17.9,-31.8 -17.9,-31.8 0,0 -38,24.4 -53.9,41.8 -13,14.3 -25.3,32.7 -32.1,47.6 -4.7,10.3 -12,28.3 -14.3,41.6 -2.8,16.9 8.4,21.2 8.4,21.2 z"
       stroke-miterlimit="10" /><path
       style="fill:none;stroke:#000000;stroke-width:9;stroke-linecap:round;stroke-miterlimit:10;stroke-opacity:0.04313726"
       inkscape:connector-curvature="0"
       id="path3065"
       d="m 768.8,632.44549 c -22.1,14.2 -89.7,20.2 -123.5,5.4 -25.4,-11.1 -41.3,-21.1 -54.4,-34.9 -13.2,-13.8 -38.8,-39.7 -34.4,-72.6 2.3,-16.8 15,-39.2 37.2,-48.8 22.2,-9.6 64.4,-11.4 80.8,-13.7 18.3,-2.6 65.5,-17.7 76.4,-21.9 14.5,-5.6 30.1,-20.5 30.1,-20.5"
       stroke-miterlimit="10" /><path
       style="fill:none;stroke:#000000;stroke-width:9;stroke-miterlimit:10;stroke-opacity:0.04313726"
       inkscape:connector-curvature="0"
       id="path3067"
       d="m 498.7,267.34549 c -9.3,8.4 -18.2,23.1 -23.6,36.7 -5.1,12.8 -12.2,46.5 -12.2,46.5 l 17.8,24.9 18,-108.1 z"
       stroke-miterlimit="10" /><path
       style="fill:none;stroke:#000000;stroke-width:9;stroke-miterlimit:10;stroke-opacity:0.04313726"
       inkscape:connector-curvature="0"
       id="path3069"
       d="m 442,642.64549 c -19.5,4 -55.9,-25 -57.5,-64.6 -1.5,-39.6 78.4,-227.5 78.4,-227.5"
       stroke-miterlimit="10" /><polygon
       transform="translate(-38.5,-151.75451)"
       style="fill:#ffffff;stroke:#000000;stroke-width:9;stroke-miterlimit:10;stroke-opacity:0.04313726"
       id="polygon3071"
       points="479.9,760.8 373.3,644.5 384.8,634.5 480.5,739.2 "
       stroke-miterlimit="10" /><path
       style="fill:none;stroke:#000000;stroke-width:9;stroke-miterlimit:10;stroke-opacity:0.04313726"
       inkscape:connector-curvature="0"
       id="path3073"
       d="m 859,234.14549 c 25.6,5.5 128.8,60.6 156.9,144.3 19,56.7 43.4,228.5 -66.4,268.1"
       stroke-miterlimit="10" /><path
       style="fill:none;stroke:#000000;stroke-width:9;stroke-miterlimit:10;stroke-opacity:0.04313726"
       inkscape:connector-curvature="0"
       id="path3075"
       d="m 894.5,324.04549 c 26.7,34.9 76.8,106.8 131.9,113.7"
       stroke-miterlimit="10" /><polyline
       transform="translate(-38.5,-151.75451)"
       style="fill:none;stroke:#000000;stroke-width:9;stroke-miterlimit:10;stroke-opacity:0.04313726"
       id="polyline3077"
       points="708.8,620.1 689.5,532.9 537.2,546.6   580.1,747.2 619.4,744.1 "
       stroke-miterlimit="10" /><path
       style="fill:none;stroke:#000000;stroke-width:9;stroke-linecap:round;stroke-miterlimit:10;stroke-opacity:0.04313726"
       inkscape:connector-curvature="0"
       id="path3079"
       d="m 617.5,887.14549 c 13.5,7 57.2,29.3 65.2,38.1 7.9,8.8 10.6,11.7 9.3,12.8"
       stroke-miterlimit="10" /><path
       style="fill:none;stroke:#000000;stroke-width:9;stroke-linecap:round;stroke-miterlimit:10;stroke-opacity:0.04313726"
       inkscape:connector-curvature="0"
       id="path3081"
       d="M 452.7,840.04549"
       stroke-miterlimit="10" /><path
       style="fill:none;stroke:#000000;stroke-width:7;stroke-linecap:round;stroke-miterlimit:10;stroke-opacity:0.04313726"
       inkscape:connector-curvature="0"
       id="path3083"
       d="M 3.5,1206.9455 C 20.2,1180.5455 197,919.24549 458.7,869.34549"
       stroke-miterlimit="10" /><path
       style="fill:none;stroke:#000000;stroke-width:7;stroke-linecap:round;stroke-miterlimit:10;stroke-opacity:0.04313726"
       inkscape:connector-curvature="0"
       id="path3085"
       d="m 950.4,849.14549 c 103.6,0 239,48.1 345.3,133.2"
       stroke-miterlimit="10" /><path
       style="fill:none;stroke:#000000;stroke-width:8;stroke-linecap:round;stroke-miterlimit:10;stroke-opacity:0.04313726"
       inkscape:connector-curvature="0"
       id="path3087"
       d="m 534.7,151.04549 c 11.8,-24.3 26.8,-13.6 33.4,1"
       stroke-miterlimit="10" /><path
       style="fill:none;stroke:#000000;stroke-width:8;stroke-linecap:round;stroke-miterlimit:10;stroke-opacity:0.04313726"
       inkscape:connector-curvature="0"
       id="path3089"
       d="m 629,158.64549 c 7.5,-14.2 32,-31.4 48.7,-0.2"
       stroke-miterlimit="10" /></g></svg>